<svg width="50" height="50" viewBox="0 0 50 50" fill="none" xmlns="http://www.w3.org/2000/svg">
<path d="M23.3763 0.038517C20.616 0.296009 18.1317 0.865616 15.8839 1.75514C10.1503 4.01796 5.42609 8.30171 2.64995 13.7559C1.44328 16.1279 0.528413 19.1086 0.141962 21.9098C-0.0473205 23.2753 -0.0473205 26.7086 0.141962 28.0741C1.05683 34.7377 4.29828 40.4337 9.53509 44.5926C12.051 46.5902 15.0795 48.1351 18.0922 48.97C20.8289 49.7269 22.7139 50 25.2771 50C32.4067 50 39.3076 46.9413 44.0318 41.69C46.8316 38.5845 48.6613 35.1824 49.726 31.1172C50.0651 29.8375 50.0809 29.5176 49.8206 29.0806C49.4894 28.5266 48.5272 28.4486 48.1092 28.9402C47.9988 29.0728 47.778 29.4083 47.6123 29.6971C45.0097 34.3241 40.601 37.7027 35.5219 38.9512C33.708 39.4038 32.8641 39.4974 30.8293 39.5052C28.8892 39.5052 28.0216 39.4116 26.3733 39.0292C21.7201 37.9524 17.5244 35.0498 14.8271 31.0391C13.5494 29.1509 12.5321 26.7866 12.0667 24.6408C11.3806 21.4963 11.5226 17.8446 12.4453 14.9653C12.6819 14.2397 13.2892 12.7571 13.6362 12.0783C16.0417 7.34977 20.1822 3.90092 25.3401 2.32475C26.2471 2.04384 26.4758 1.87999 26.602 1.41182C26.7755 0.795391 26.4049 0.217983 25.7424 0.0697289C25.4111 -0.00830078 24.0152 -0.0239067 23.3763 0.038517Z" fill="black"/>
</svg>
